<?xml version="1.0" standalone="no"?>
<!DOCTYPE svg PUBLIC "-//W3C//DTD SVG 20010904//EN"
 "http://www.w3.org/TR/2001/REC-SVG-20010904/DTD/svg10.dtd">
<svg version="1.0" xmlns="http://www.w3.org/2000/svg"
 width="512.000000pt" height="512.000000pt" viewBox="0 0 512.000000 512.000000"
 preserveAspectRatio="xMidYMid meet">

<g transform="translate(0.000000,512.000000) scale(0.100000,-0.100000)"
fill="#000000" stroke="none">
<path d="M1945 5095 c-30 -29 -33 -81 -10 -170 45 -172 179 -305 352 -350 46
-12 131 -15 421 -15 l363 0 24 -25 c16 -15 25 -36 25 -55 0 -19 -9 -40 -25
-55 l-24 -25 -672 0 c-498 0 -682 -3 -713 -12 -55 -16 -138 -99 -154 -154 -25
-86 -9 -162 49 -228 71 -81 69 -80 456 -86 325 -5 343 -6 369 -26 45 -33 64
-66 73 -124 14 -88 82 -120 138 -64 24 24 25 30 19 86 -7 70 -54 166 -99 204
-16 14 -53 37 -81 52 l-51 27 -343 5 -344 5 -19 24 c-26 32 -24 77 6 106 l24
25 672 0 c498 0 682 3 713 12 55 16 138 99 154 154 26 87 9 162 -52 231 -69
79 -60 77 -506 83 l-395 5 -51 27 c-28 15 -65 38 -81 52 -46 39 -92 134 -100
207 -5 47 -12 69 -29 86 -31 31 -78 30 -109 -2z"/>
<path d="M1280 3507 c-49 -16 -133 -102 -148 -153 -19 -64 -17 -1366 2 -1494
16 -103 53 -231 93 -322 23 -52 24 -59 10 -78 -15 -21 -16 -20 -51 47 -96 182
-271 323 -476 384 -64 18 -108 22 -287 26 l-212 5 -26 -26 -27 -27 5 -212 c5
-234 13 -279 72 -404 45 -97 87 -155 163 -230 l63 -63 -206 0 c-205 0 -206 0
-230 -25 -18 -17 -25 -35 -25 -63 0 -200 130 -404 314 -492 90 -43 166 -60
268 -60 51 0 68 -3 68 -14 0 -7 16 -45 35 -83 43 -86 103 -144 193 -186 l67
-32 1615 0 1615 0 67 32 c90 42 150 100 193 186 19 38 35 76 35 83 0 11 17 14
68 14 232 0 428 118 521 313 40 82 61 166 61 239 0 28 -7 46 -25 63 l-24 25
-848 1 c-660 0 -844 3 -829 12 132 83 283 221 361 329 l40 56 180 5 c190 5
254 16 374 63 242 96 449 303 545 545 48 123 60 193 60 349 0 160 -12 227 -65
359 -70 177 -224 358 -388 459 -132 81 -331 142 -462 142 -29 0 -39 4 -39 16
0 41 -27 100 -67 144 -77 86 27 80 -1377 79 -874 -1 -1251 -4 -1276 -12z
m2514 -158 c13 -7 30 -24 36 -39 8 -19 10 -225 7 -726 -3 -599 -6 -708 -20
-764 -22 -91 -43 -154 -79 -232 l-31 -68 -589 0 -589 0 -24 -25 c-30 -29 -32
-74 -6 -106 l19 -24 539 -5 538 -5 -55 -59 c-121 -129 -329 -254 -493 -295
-142 -37 -233 -43 -550 -39 -286 5 -307 6 -397 31 -52 14 -112 32 -133 41
l-38 17 32 45 c86 126 119 254 119 469 0 142 -1 147 -25 170 -23 24 -28 25
-170 25 -215 0 -343 -33 -469 -119 l-45 -32 -17 38 c-9 21 -28 81 -42 133
l-26 95 -4 717 -3 718 25 25 25 25 1220 0 c885 0 1227 -3 1245 -11z m414 -259
c149 -41 260 -108 369 -224 123 -129 193 -277 216 -458 20 -161 -20 -347 -105
-493 -53 -91 -192 -230 -283 -283 -80 -47 -190 -86 -285 -101 -56 -9 -230 -16
-230 -8 0 1 13 36 29 77 l29 75 84 6 c287 20 518 211 588 485 87 338 -124 687
-466 774 -43 11 -94 20 -116 20 l-38 0 0 81 0 82 70 -7 c38 -4 100 -16 138
-26z m-93 -305 c237 -62 393 -291 358 -529 -29 -205 -186 -369 -387 -405 -104
-19 -104 -19 -95 42 4 28 8 244 8 480 l1 427 28 0 c15 0 54 -7 87 -15z m-3445
-1050 c203 -62 365 -225 424 -425 9 -30 19 -95 22 -145 l6 -90 -224 223 c-200
198 -228 222 -256 222 -44 0 -82 -38 -82 -82 0 -28 24 -56 223 -256 l222 -224
-91 6 c-50 3 -118 14 -152 24 -147 46 -285 156 -357 285 -62 112 -76 172 -82
341 l-6 149 149 -6 c97 -3 168 -11 204 -22z m1250 -212 c-1 -307 -185 -523
-475 -558 l-50 -6 143 144 c124 125 142 148 142 176 0 43 -38 81 -81 81 -28 0
-51 -18 -176 -142 l-143 -142 6 49 c16 130 70 242 155 326 102 98 230 147 397
148 l82 1 0 -77z m3025 -745 c-42 -145 -168 -260 -314 -288 -34 -6 -428 -10
-1078 -10 l-1024 0 -24 -25 c-33 -32 -33 -78 0 -110 l24 -25 886 0 c533 0 885
-4 885 -9 0 -24 -70 -97 -115 -120 l-49 -26 -1581 0 c-1522 0 -1581 1 -1615
19 -57 30 -120 99 -120 131 0 3 128 5 285 5 l286 0 24 25 c33 32 33 78 0 110
l-24 25 -433 0 c-480 0 -506 3 -607 63 -83 50 -146 134 -176 235 l-6 22 2391
0 2391 0 -6 -22z"/>
</g>
</svg>
